<?xml version="1.0" standalone="no"?>
<!DOCTYPE svg PUBLIC "-//W3C//DTD SVG 20010904//EN"
 "http://www.w3.org/TR/2001/REC-SVG-20010904/DTD/svg10.dtd">
<svg version="1.0" xmlns="http://www.w3.org/2000/svg"
 width="512.000000pt" height="512.000000pt" viewBox="0 0 512.000000 512.000000"
 preserveAspectRatio="xMidYMid meet">

<g transform="translate(0.000000,512.000000) scale(0.100000,-0.100000)"
fill="#000000" stroke="none">
<path d="M2335 5109 c-1148 -107 -2083 -958 -2290 -2083 -78 -424 -48 -863 86
-1268 268 -810 930 -1437 1754 -1663 673 -184 1403 -83 1996 278 672 408 1110
1082 1215 1867 22 168 22 474 0 640 -55 412 -187 764 -412 1100 -357 535 -903
917 -1521 1066 -243 59 -593 85 -828 63z m-397 -925 c49 -20 90 -60 113 -109
16 -34 19 -66 19 -211 0 -162 -1 -172 -25 -221 -61 -121 -210 -149 -312 -60
-64 56 -73 90 -73 280 0 129 4 176 16 205 44 105 162 158 262 116z m1485 -21
c22 -15 51 -48 64 -72 22 -42 23 -55 23 -225 0 -169 -2 -185 -22 -226 -74
-145 -284 -145 -358 1 -18 34 -20 59 -20 224 0 166 2 190 20 225 20 39 66 81
110 99 45 19 138 6 183 -26z m-1811 -365 c6 -137 19 -182 71 -236 53 -56 102
-76 182 -76 78 0 118 15 173 68 62 58 75 96 80 239 l4 127 469 0 469 0 0 -123
c0 -112 2 -128 26 -175 82 -165 310 -189 421 -44 44 58 53 98 53 231 l0 113
114 -3 c108 -4 117 -6 157 -34 23 -17 52 -48 63 -70 21 -40 21 -50 24 -915 l2
-874 -26 -53 c-19 -40 -37 -60 -72 -81 l-47 -27 -783 -3 -784 -3 -58 55 c-147
135 -417 276 -576 301 -50 8 -112 -7 -147 -36 -27 -21 -34 -40 -62 -169 -27
-122 -23 -115 -50 -90 -57 54 -55 11 -55 968 0 598 3 890 11 909 15 40 57 82
104 104 30 14 64 19 136 19 l96 0 5 -122z m89 -1668 c242 -88 509 -296 509
-396 0 -46 -8 -63 -41 -79 -58 -31 -160 -9 -318 66 -273 130 -459 310 -410
397 34 61 116 65 260 12z m-149 -283 c137 -108 348 -216 476 -242 35 -8 65
-15 67 -17 6 -6 -676 -633 -707 -650 -86 -47 -188 16 -188 116 0 20 188 860
206 919 5 14 12 9 42 -28 20 -24 67 -69 104 -98z m1260 -106 c77 -86 18 -211
-101 -211 -37 0 -49 6 -82 39 -33 32 -39 45 -39 80 0 49 22 96 52 112 64 34
128 27 170 -20z"/>
<path d="M2506 3654 c-36 -48 -66 -93 -66 -101 0 -19 131 -183 146 -183 14 0
154 168 154 185 -1 18 -140 185 -154 185 -7 0 -43 -39 -80 -86z m132 -38 c23
-30 42 -57 42 -61 0 -4 -21 -33 -46 -65 l-46 -59 -49 62 c-26 34 -44 66 -40
72 33 45 85 105 90 105 3 0 25 -24 49 -54z"/>
<path d="M1287 3256 c-3 -8 0 -19 7 -25 9 -8 393 -10 1302 -9 1281 3 1289 3
1289 23 0 20 -8 20 -1296 23 -1117 2 -1298 0 -1302 -12z"/>
<path d="M1576 3054 c-53 -54 -25 -151 49 -170 69 -17 138 61 115 131 -22 67
-113 89 -164 39z m104 -34 c11 -11 20 -26 20 -33 0 -24 -31 -57 -55 -57 -24 0
-55 33 -55 57 0 18 37 53 55 53 8 0 24 -9 35 -20z"/>
<path d="M2380 3040 c0 -20 5 -20 128 -18 105 3 127 6 127 18 0 12 -22 15
-127 18 -123 2 -128 2 -128 -18z"/>
<path d="M2905 3050 c-15 -24 12 -30 131 -30 117 0 124 1 124 20 0 19 -7 20
-124 20 -73 0 -127 -4 -131 -10z"/>
<path d="M3430 3040 c0 -20 5 -20 128 -18 105 3 127 6 127 18 0 12 -22 15
-127 18 -123 2 -128 2 -128 -18z"/>
<path d="M1956 2868 c-3 -13 -31 -178 -61 -367 -41 -247 -54 -346 -46 -354 27
-27 41 25 96 366 31 191 54 354 51 362 -8 23 -35 18 -40 -7z"/>
<path d="M1620 2776 c0 -8 10 -31 21 -51 27 -45 21 -78 -26 -146 -28 -41 -35
-61 -35 -98 0 -58 27 -115 58 -119 28 -4 28 12 2 63 -26 49 -21 83 20 133 54
67 58 140 13 209 -17 25 -53 31 -53 9z"/>
<path d="M2383 2745 c-11 -30 12 -36 133 -33 111 3 119 4 119 23 0 19 -8 20
-123 23 -105 2 -123 0 -129 -13z"/>
<path d="M2903 2745 c-11 -30 12 -36 133 -33 111 3 119 4 119 23 0 19 -8 20
-123 23 -105 2 -123 0 -129 -13z"/>
<path d="M3437 2754 c-4 -4 -7 -16 -7 -26 0 -17 9 -18 128 -16 119 3 127 4
127 23 0 19 -8 20 -121 23 -66 1 -123 -1 -127 -4z"/>
<path d="M2237 2274 c-131 -108 -236 -201 -234 -208 10 -31 59 1 268 173 123
101 228 190 232 197 9 16 1 34 -16 34 -7 0 -119 -88 -250 -196z"/>
<path d="M1374 2450 c-65 -26 -85 -123 -38 -179 66 -79 194 -31 194 73 0 83
-79 137 -156 106z m93 -52 c33 -30 31 -80 -3 -107 -44 -35 -89 -26 -109 23
-32 75 53 140 112 84z"/>
<path d="M2905 2440 c-15 -24 12 -30 131 -30 117 0 124 1 124 20 0 19 -7 20
-124 20 -73 0 -127 -4 -131 -10z"/>
<path d="M3430 2430 c0 -20 5 -20 128 -18 105 3 127 6 127 18 0 12 -22 15
-127 18 -123 2 -128 2 -128 -18z"/>
<path d="M2673 2390 c-70 -29 -74 -148 -6 -179 60 -27 121 -3 144 56 12 31 -3
83 -30 107 -23 21 -78 29 -108 16z m83 -65 c30 -46 -13 -95 -63 -72 -31 14
-38 43 -19 72 22 33 60 33 82 0z"/>
<path d="M2903 2135 c-11 -30 12 -36 133 -33 111 3 119 4 119 23 0 19 -8 20
-123 23 -105 2 -123 0 -129 -13z"/>
<path d="M3437 2143 c-4 -3 -7 -15 -7 -25 0 -16 10 -18 124 -18 69 0 127 4
130 9 4 5 3 16 0 25 -5 13 -25 16 -123 16 -65 0 -121 -3 -124 -7z"/>
</g>
</svg>
